<?xml version="1.0" encoding="UTF-8"?>
<svg id="tech-flowchart-svg" viewBox="0 0 1700 960" xmlns="http://www.w3.org/2000/svg" font-family="'Inter', -apple-system, BlinkMacSystemFont, 'Segoe UI', Roboto, sans-serif">
  <defs>
    <marker id="arrow" viewBox="0 0 10 10" refX="6" refY="5" markerWidth="6" markerHeight="6" orient="auto-start-reverse">
      <path d="M 0 1.5 L 8 5 L 0 8.5 z" fill="#000000" />
    </marker>
    <marker id="arrow-dashed" viewBox="0 0 10 10" refX="6" refY="5" markerWidth="6" markerHeight="6" orient="auto-start-reverse">
      <path d="M 0 1.5 L 8 5 L 0 8.5 z" fill="#000000" />
    </marker>
  </defs>

  <!-- Clean White Canvas Background -->
  <rect width="1700" height="960" fill="#ffffff" />

  <!-- ========================================================================= -->
  <!-- TOP HEADER                                                                -->
  <!-- ========================================================================= -->
  <circle cx="45" cy="48" r="18" fill="none" stroke="#000000" stroke-width="3" />
  <circle cx="45" cy="48" r="10" fill="none" stroke="#000000" stroke-width="2.5" />
  <circle cx="45" cy="48" r="4" fill="#000000" />

  <text x="75" y="44" font-size="22" font-weight="900" letter-spacing="0.06em" fill="#000000">TRUE TONE</text>
  <text x="75" y="60" font-size="9" font-weight="700" letter-spacing="0.1em" fill="#4b5563">AI-POWERED SIM-TO-SIM VOICE CALL DEEPFAKE DETECTION • SIH SPECIFICATION</text>

  <!-- Technical Flow Pill Badge (Top Right) -->
  <rect x="940" y="24" width="200" height="42" rx="21" fill="#000000" />
  <text x="1040" y="49" font-size="12" font-weight="800" fill="#ffffff" text-anchor="middle" letter-spacing="0.08em">TECHNICAL FLOW</text>

  <!-- ========================================================================= -->
  <!-- 1. LEFT COLUMN: INGESTION INPUT NODES (Solid Black Pills)                 -->
  <!-- ========================================================================= -->
  <rect x="25" y="295" width="125" height="38" rx="19" fill="#000000" />
  <text x="87" y="318" font-size="9" font-weight="800" fill="#ffffff" text-anchor="middle" letter-spacing="0.04em">CELLULAR CARRIER</text>

  <rect x="25" y="465" width="125" height="38" rx="19" fill="#000000" />
  <text x="87" y="488" font-size="9" font-weight="800" fill="#ffffff" text-anchor="middle" letter-spacing="0.04em">SMARTPHONE APP</text>

  <rect x="25" y="635" width="125" height="38" rx="19" fill="#000000" />
  <text x="87" y="658" font-size="9" font-weight="800" fill="#ffffff" text-anchor="middle" letter-spacing="0.04em">GSM / SIP GATEWAY</text>

  <!-- Connecting Bezier Curves from Inputs to ACQUIRE STREAM -->
  <path d="M 150 314 C 185 314, 185 484, 218 484" fill="none" stroke="#000000" stroke-width="2" marker-end="url(#arrow)" />
  <path d="M 150 484 L 218 484" fill="none" stroke="#000000" stroke-width="2" marker-end="url(#arrow)" />
  <path d="M 150 654 C 185 654, 185 484, 218 484" fill="none" stroke="#000000" stroke-width="2" marker-end="url(#arrow)" />

  <!-- ========================================================================= -->
  <!-- 2. CENTRAL ACQUIRE NODE                                                   -->
  <!-- ========================================================================= -->
  <rect x="220" y="457" width="165" height="54" rx="27" fill="#ffffff" stroke="#000000" stroke-width="2.5" />
  <rect x="238" y="471" width="14" height="24" rx="3" fill="none" stroke="#000000" stroke-width="2" />
  <circle cx="245" cy="490" r="1.5" fill="#000000" />
  <text x="264" y="489" font-size="11" font-weight="800" fill="#000000" letter-spacing="0.04em">ACQUIRE STREAM</text>

  <!-- Splitting paths from ACQUIRE STREAM to 3 Workstreams -->
  <path d="M 385 484 C 415 484, 415 210, 448 210" fill="none" stroke="#000000" stroke-width="2" marker-end="url(#arrow)" />
  <path d="M 385 484 L 448 484" fill="none" stroke="#000000" stroke-width="2" marker-end="url(#arrow)" />
  <path d="M 385 484 C 415 484, 415 758, 448 758" fill="none" stroke="#000000" stroke-width="2" marker-end="url(#arrow)" />

  <!-- ========================================================================= -->
  <!-- STREAM 1: TELEPHONY CODEC & VAD WORKSTREAM                                 -->
  <!-- ========================================================================= -->
  <polygon points="505,170 565,210 505,250 445,210" fill="#000000" />
  <text x="505" y="206" font-size="8.5" font-weight="800" fill="#ffffff" text-anchor="middle">ACTIVE CALL</text>
  <text x="505" y="218" font-size="8.5" font-weight="800" fill="#ffffff" text-anchor="middle">AUDIO?</text>

  <path d="M 505 250 L 505 308" fill="none" stroke="#000000" stroke-width="2" marker-end="url(#arrow)" />
  <text x="515" y="278" font-size="9" font-weight="800" fill="#000000">YES</text>

  <rect x="440" y="310" width="130" height="38" rx="19" fill="#ffffff" stroke="#000000" stroke-width="2" />
  <text x="505" y="333" font-size="9.5" font-weight="800" fill="#000000" text-anchor="middle">PROCESS CODEC</text>

  <!-- Database Icon: STREAM BUFFER -->
  <g transform="translate(385, 275)">
    <path d="M0,8 C0,3.5 12,0 26,0 C40,0 52,3.5 52,8 L52,30 C52,34.5 40,38 26,38 C12,38 0,34.5 0,30 Z" fill="#ffffff" stroke="#000000" stroke-width="1.8" />
    <path d="M0,8 C0,12.5 12,16 26,16 C40,16 52,12.5 52,8" fill="none" stroke="#000000" stroke-width="1.8" />
    <path d="M0,18 C0,22.5 12,26 26,26 C40,26 52,22.5 52,18" fill="none" stroke="#000000" stroke-width="1.8" />
    <text x="26" y="50" font-size="7.5" font-weight="800" fill="#000000" text-anchor="middle">RING BUFFER</text>
    <text x="26" y="59" font-size="7" font-weight="700" fill="#4b5563" text-anchor="middle">3-5s CAPACITY</text>
  </g>
  <path d="M 440 329 L 420 329" fill="none" stroke="#000000" stroke-width="1.8" marker-end="url(#arrow)" />

  <path d="M 565 210 L 638 210" fill="none" stroke="#000000" stroke-width="2" marker-end="url(#arrow)" />
  <text x="585" y="202" font-size="9" font-weight="800" fill="#000000">No</text>

  <!-- Engine 1: VAD & CODEC ENGINE -->
  <rect x="640" y="190" width="145" height="42" rx="6" fill="#ffffff" stroke="#000000" stroke-width="2" />
  <rect x="648" y="197" width="18" height="26" rx="2" fill="none" stroke="#000000" stroke-width="1.5" />
  <line x1="652" y1="203" x2="662" y2="203" stroke="#000000" stroke-width="1.5" />
  <line x1="652" y1="209" x2="662" y2="209" stroke="#000000" stroke-width="1.5" />
  <circle cx="657" cy="216" r="1.5" fill="#000000" />
  <text x="674" y="215" font-size="9" font-weight="800" fill="#000000">VAD &amp; CODEC ENGINE</text>

  <!-- Database under VAD ENGINE -->
  <g transform="translate(685, 275)">
    <path d="M0,8 C0,3.5 12,0 26,0 C40,0 52,3.5 52,8 L52,30 C52,34.5 40,38 26,38 C12,38 0,34.5 0,30 Z" fill="#ffffff" stroke="#000000" stroke-width="1.8" />
    <path d="M0,8 C0,12.5 12,16 26,16 C40,16 52,12.5 52,8" fill="none" stroke="#000000" stroke-width="1.8" />
    <path d="M0,18 C0,22.5 12,26 26,26 C40,26 52,22.5 52,18" fill="none" stroke="#000000" stroke-width="1.8" />
    <text x="26" y="50" font-size="7.5" font-weight="800" fill="#000000" text-anchor="middle">FETCH CHUNK</text>
    <text x="26" y="59" font-size="7" font-weight="700" fill="#4b5563" text-anchor="middle">16k RESAMPLED</text>
  </g>
  <path d="M 712 275 L 712 234" fill="none" stroke="#000000" stroke-width="1.8" marker-end="url(#arrow)" />

  <!-- Sub-branches branching out from Engine 1 -->
  <path d="M 785 210 C 805 210, 810 110, 838 110" fill="none" stroke="#000000" stroke-width="1.8" marker-end="url(#arrow)" />
  <path d="M 785 210 C 805 210, 810 160, 838 160" fill="none" stroke="#000000" stroke-width="1.8" marker-end="url(#arrow)" />
  <path d="M 785 210 C 805 210, 810 210, 838 210" fill="none" stroke="#000000" stroke-width="1.8" marker-end="url(#arrow)" />
  <path d="M 785 210 C 805 210, 810 260, 838 260" fill="none" stroke="#000000" stroke-width="1.8" marker-end="url(#arrow)" />

  <rect x="840" y="93" width="160" height="34" rx="17" fill="#ffffff" stroke="#000000" stroke-width="1.8" />
  <text x="852" y="114" font-size="10">⚡</text>
  <text x="868" y="114" font-size="8.5" font-weight="800" fill="#000000">G.711 μ-LAW / A-LAW</text>

  <rect x="840" y="143" width="160" height="34" rx="17" fill="#ffffff" stroke="#000000" stroke-width="1.8" />
  <text x="852" y="164" font-size="10">📡</text>
  <text x="868" y="164" font-size="8.5" font-weight="800" fill="#000000">AMR-NB &amp; AMR-WB</text>

  <rect x="840" y="193" width="160" height="34" rx="17" fill="#ffffff" stroke="#000000" stroke-width="1.8" />
  <text x="852" y="214" font-size="10">🎙️</text>
  <text x="868" y="214" font-size="8.5" font-weight="800" fill="#000000">SILERO VAD (p_speech)</text>

  <rect x="840" y="243" width="160" height="34" rx="17" fill="#ffffff" stroke="#000000" stroke-width="1.8" />
  <text x="852" y="264" font-size="10">🛡️</text>
  <text x="868" y="264" font-size="8.5" font-weight="800" fill="#000000">PACKET CONCEALMENT</text>

  <!-- Decision Diamond: SPEECH >= 0.50? -->
  <path d="M 1000 210 L 1038 210" fill="none" stroke="#000000" stroke-width="2" marker-end="url(#arrow)" />
  <polygon points="1075,180 1120,210 1075,240 1030,210" fill="#000000" />
  <text x="1075" y="206" font-size="8" font-weight="800" fill="#ffffff" text-anchor="middle">SPEECH</text>
  <text x="1075" y="217" font-size="8" font-weight="800" fill="#ffffff" text-anchor="middle">&gt;= 0.50?</text>

  <path d="M 1120 210 L 1158 210" fill="none" stroke="#000000" stroke-width="2" marker-end="url(#arrow)" />
  <text x="1130" y="202" font-size="8.5" font-weight="800" fill="#000000">YES</text>

  <rect x="1160" y="193" width="145" height="34" rx="17" fill="#000000" />
  <text x="1232" y="214" font-size="8.5" font-weight="800" fill="#ffffff" text-anchor="middle">TRIGGER ML INFERENCE</text>

  <path d="M 1075 240 C 1075 270, 1120 270, 1158 270" fill="none" stroke="#000000" stroke-width="2" marker-end="url(#arrow)" />
  <text x="1085" y="260" font-size="8.5" font-weight="800" fill="#000000">NO</text>

  <rect x="1160" y="253" width="145" height="34" rx="17" fill="#ffffff" stroke="#000000" stroke-width="1.8" />
  <text x="1232" y="274" font-size="8.5" font-weight="800" fill="#000000" text-anchor="middle">DECAY TO BASELINE</text>

  <!-- Top Right Card: TELEPHONY SPECIFICATIONS -->
  <g transform="translate(1335, 110)">
    <rect width="185" height="150" rx="8" fill="#ffffff" stroke="#000000" stroke-width="2" />
    <text x="15" y="22" font-size="9" font-weight="900" letter-spacing="0.04em" fill="#000000">TELEPHONY SPECIFICATIONS</text>
    <line x1="15" y1="28" x2="170" y2="28" stroke="#000000" stroke-width="1" />
    <text x="15" y="46" font-size="8" font-family="'JetBrains Mono', monospace" fill="#374151">• Sampling: 8kHz / 16kHz</text>
    <text x="15" y="64" font-size="8" font-family="'JetBrains Mono', monospace" fill="#374151">• POTS Bandpass: 300-3400Hz</text>
    <text x="15" y="82" font-size="8" font-family="'JetBrains Mono', monospace" fill="#374151">• VoLTE Bandpass: 50-7000Hz</text>
    <text x="15" y="100" font-size="8" font-family="'JetBrains Mono', monospace" fill="#374151">• Frame Size: 20ms / 25ms</text>
    <text x="15" y="118" font-size="8" font-family="'JetBrains Mono', monospace" fill="#374151">• Quant: 8-bit Companding</text>
    <text x="15" y="136" font-size="8" font-family="'JetBrains Mono', monospace" fill="#374151">• VAD Latency: &lt; 1.0 ms</text>
  </g>

  <!-- ========================================================================= -->
  <!-- STREAM 2: FEATURE EXTRACTION & PYTORCH ML PIPELINE                         -->
  <!-- ========================================================================= -->
  <polygon points="505,444 565,484 505,524 445,484" fill="#000000" />
  <text x="505" y="480" font-size="8.5" font-weight="800" fill="#ffffff" text-anchor="middle">NEW 500ms</text>
  <text x="505" y="492" font-size="8.5" font-weight="800" fill="#ffffff" text-anchor="middle">CHUNK?</text>

  <path d="M 505 524 L 505 578" fill="none" stroke="#000000" stroke-width="2" marker-end="url(#arrow)" />
  <text x="515" y="552" font-size="9" font-weight="800" fill="#000000">YES</text>

  <rect x="440" y="580" width="130" height="38" rx="19" fill="#ffffff" stroke="#000000" stroke-width="2" />
  <text x="505" y="603" font-size="9.5" font-weight="800" fill="#000000" text-anchor="middle">SLICE 1.5s WINDOW</text>

  <g transform="translate(385, 545)">
    <path d="M0,8 C0,3.5 12,0 26,0 C40,0 52,3.5 52,8 L52,30 C52,34.5 40,38 26,38 C12,38 0,34.5 0,30 Z" fill="#ffffff" stroke="#000000" stroke-width="1.8" />
    <path d="M0,8 C0,12.5 12,16 26,16 C40,16 52,12.5 52,8" fill="none" stroke="#000000" stroke-width="1.8" />
    <path d="M0,18 C0,22.5 12,26 26,26 C40,26 52,22.5 52,18" fill="none" stroke="#000000" stroke-width="1.8" />
    <text x="26" y="50" font-size="7.5" font-weight="800" fill="#000000" text-anchor="middle">FEATURE CACHE</text>
    <text x="26" y="59" font-size="7" font-weight="700" fill="#4b5563" text-anchor="middle">133-DIM VECTOR</text>
  </g>
  <path d="M 440 599 L 420 599" fill="none" stroke="#000000" stroke-width="1.8" marker-end="url(#arrow)" />

  <path d="M 565 484 L 638 484" fill="none" stroke="#000000" stroke-width="2" marker-end="url(#arrow)" />
  <text x="585" y="476" font-size="9" font-weight="800" fill="#000000">No</text>

  <!-- Engine 2: PYTORCH ML ENGINE -->
  <rect x="640" y="464" width="145" height="42" rx="6" fill="#ffffff" stroke="#000000" stroke-width="2" />
  <rect x="648" y="471" width="18" height="26" rx="2" fill="none" stroke="#000000" stroke-width="1.5" />
  <line x1="652" y1="477" x2="662" y2="477" stroke="#000000" stroke-width="1.5" />
  <line x1="652" y1="483" x2="662" y2="483" stroke="#000000" stroke-width="1.5" />
  <circle cx="657" cy="490" r="1.5" fill="#000000" />
  <text x="674" y="489" font-size="9" font-weight="800" fill="#000000">PYTORCH ML ENGINE</text>

  <g transform="translate(685, 545)">
    <path d="M0,8 C0,3.5 12,0 26,0 C40,0 52,3.5 52,8 L52,30 C52,34.5 40,38 26,38 C12,38 0,34.5 0,30 Z" fill="#ffffff" stroke="#000000" stroke-width="1.8" />
    <path d="M0,8 C0,12.5 12,16 26,16 C40,16 52,12.5 52,8" fill="none" stroke="#000000" stroke-width="1.8" />
    <path d="M0,18 C0,22.5 12,26 26,26 C40,26 52,22.5 52,18" fill="none" stroke="#000000" stroke-width="1.8" />
    <text x="26" y="50" font-size="7.5" font-weight="800" fill="#000000" text-anchor="middle">FETCH EMBED</text>
    <text x="26" y="59" font-size="7" font-weight="700" fill="#4b5563" text-anchor="middle">ANCHOR SESSION</text>
  </g>
  <path d="M 712 545 L 712 508" fill="none" stroke="#000000" stroke-width="1.8" marker-end="url(#arrow)" />

  <!-- Sub-branches branching out from Engine 2 -->
  <path d="M 785 484 C 805 484, 810 395, 838 395" fill="none" stroke="#000000" stroke-width="1.8" marker-end="url(#arrow)" />
  <path d="M 785 484 C 805 484, 810 440, 838 440" fill="none" stroke="#000000" stroke-width="1.8" marker-end="url(#arrow)" />
  <path d="M 785 484 C 805 484, 810 484, 838 484" fill="none" stroke="#000000" stroke-width="1.8" marker-end="url(#arrow)" />
  <path d="M 785 484 C 805 484, 810 528, 838 528" fill="none" stroke="#000000" stroke-width="1.8" marker-end="url(#arrow)" />
  <path d="M 785 484 C 805 484, 810 572, 838 572" fill="none" stroke="#000000" stroke-width="1.8" marker-end="url(#arrow)" />

  <rect x="840" y="378" width="165" height="34" rx="17" fill="#ffffff" stroke="#000000" stroke-width="1.8" />
  <text x="852" y="399" font-size="10">📊</text>
  <text x="868" y="399" font-size="8.5" font-weight="800" fill="#000000">MEL-SPEC (128x128)</text>

  <rect x="840" y="423" width="165" height="34" rx="17" fill="#ffffff" stroke="#000000" stroke-width="1.8" />
  <text x="852" y="444" font-size="10">📈</text>
  <text x="868" y="444" font-size="8.5" font-weight="800" fill="#000000">LFCC + DELTAS (60-D)</text>

  <rect x="840" y="468" width="165" height="34" rx="17" fill="#ffffff" stroke="#000000" stroke-width="1.8" />
  <text x="852" y="489" font-size="10">〰️</text>
  <text x="868" y="489" font-size="8.5" font-weight="800" fill="#000000">PHASE MGD ENTROPY</text>

  <rect x="840" y="513" width="165" height="34" rx="17" fill="#ffffff" stroke="#000000" stroke-width="1.8" />
  <text x="852" y="534" font-size="10">🎵</text>
  <text x="868" y="534" font-size="8.5" font-weight="800" fill="#000000">MICRO-JITTER (F0/HNR)</text>

  <rect x="840" y="557" width="165" height="34" rx="17" fill="#ffffff" stroke="#000000" stroke-width="1.8" />
  <text x="852" y="578" font-size="10">👤</text>
  <text x="868" y="578" font-size="8.5" font-weight="800" fill="#000000">ECAPA-TDNN (192-D)</text>

  <!-- Convergence into CALCULATE RISK -->
  <path d="M 1005 395 C 1030 395, 1030 572, 1058 572" fill="none" stroke="#000000" stroke-width="1.5" />
  <path d="M 1005 440 C 1030 440, 1030 572, 1058 572" fill="none" stroke="#000000" stroke-width="1.5" />
  <path d="M 1005 484 C 1030 484, 1030 572, 1058 572" fill="none" stroke="#000000" stroke-width="1.5" />
  <path d="M 1005 528 C 1030 528, 1030 572, 1058 572" fill="none" stroke="#000000" stroke-width="1.5" />
  <path d="M 1005 572 L 1058 572" fill="none" stroke="#000000" stroke-width="2" marker-end="url(#arrow)" />

  <rect x="1060" y="555" width="125" height="34" rx="6" fill="#ffffff" stroke="#000000" stroke-width="2" />
  <text x="1122" y="570" font-size="8" font-weight="900" fill="#000000" text-anchor="middle">CALCULATE RISK</text>
  <text x="1122" y="582" font-size="7.5" font-family="'JetBrains Mono', monospace" fill="#4b5563" text-anchor="middle">R = ∑ w_i · x_i</text>

  <!-- Decision Diamond: RISK >= 0.70? -->
  <path d="M 1185 572 L 1223 572" fill="none" stroke="#000000" stroke-width="2" marker-end="url(#arrow)" />
  <polygon points="1260,542 1305,572 1260,602 1215,572" fill="#000000" />
  <text x="1260" y="568" font-size="8" font-weight="800" fill="#ffffff" text-anchor="middle">RISK SCORE</text>
  <text x="1260" y="579" font-size="8" font-weight="800" fill="#ffffff" text-anchor="middle">&gt;= 0.70?</text>

  <path d="M 1305 572 L 1343 572" fill="none" stroke="#000000" stroke-width="2" marker-end="url(#arrow)" />
  <text x="1315" y="564" font-size="8.5" font-weight="800" fill="#000000">YES</text>

  <!-- CONFIRMED THREAT (Solid Black Capsule) -->
  <rect x="1345" y="555" width="135" height="34" rx="17" fill="#000000" />
  <text x="1412" y="576" font-size="8.5" font-weight="800" fill="#ffffff" text-anchor="middle" letter-spacing="0.04em">CONFIRMED THREAT</text>

  <!-- GLITCH FILTER -->
  <path d="M 1260 602 C 1260 632, 1305 632, 1343 632" fill="none" stroke="#000000" stroke-width="2" marker-end="url(#arrow)" />
  <text x="1270" y="622" font-size="8.5" font-weight="800" fill="#000000">NO</text>

  <rect x="1345" y="615" width="135" height="34" rx="17" fill="#ffffff" stroke="#000000" stroke-width="1.8" />
  <text x="1412" y="636" font-size="8" font-weight="800" fill="#000000" text-anchor="middle">GLITCH FILTER (EMA)</text>

  <!-- Card 2: RISK ENGINE WEIGHTS -->
  <g transform="translate(1500, 475)">
    <rect width="180" height="175" rx="8" fill="#ffffff" stroke="#000000" stroke-width="2" />
    <text x="15" y="22" font-size="9" font-weight="900" letter-spacing="0.04em" fill="#000000">RISK ENGINE WEIGHTS</text>
    <line x1="15" y1="28" x2="165" y2="28" stroke="#000000" stroke-width="1" />
    <text x="15" y="46" font-size="8" font-family="'JetBrains Mono', monospace" fill="#374151">• CNN Mel-Spec: w₁ = 0.40</text>
    <text x="15" y="64" font-size="8" font-family="'JetBrains Mono', monospace" fill="#374151">• Phase MGD:    w₂ = 0.25</text>
    <text x="15" y="82" font-size="8" font-family="'JetBrains Mono', monospace" fill="#374151">• ECAPA-TDNN:   w₃ = 0.20</text>
    <text x="15" y="100" font-size="8" font-family="'JetBrains Mono', monospace" fill="#374151">• Prosody Jitter: w₄ = 0.15</text>
    <text x="15" y="118" font-size="8" font-family="'JetBrains Mono', monospace" fill="#374151">• EMA Factor:   α = 0.35</text>
    <text x="15" y="136" font-size="8" font-family="'JetBrains Mono', monospace" fill="#374151">• Safe:         R &lt; 0.40</text>
    <text x="15" y="154" font-size="8" font-family="'JetBrains Mono', monospace" fill="#374151">• Suspicious:   0.40 - 0.70</text>
  </g>

  <!-- ========================================================================= -->
  <!-- STREAM 3: DECISION & ALERT DISPATCH WORKSTREAM                             -->
  <!-- ========================================================================= -->
  <polygon points="505,718 565,758 505,798 445,758" fill="#000000" />
  <text x="505" y="754" font-size="8.5" font-weight="800" fill="#ffffff" text-anchor="middle">ALERT LEVEL</text>
  <text x="505" y="766" font-size="8.5" font-weight="800" fill="#ffffff" text-anchor="middle">TRIGGERED?</text>

  <path d="M 505 798 L 505 852" fill="none" stroke="#000000" stroke-width="2" marker-end="url(#arrow)" />
  <text x="515" y="826" font-size="9" font-weight="800" fill="#000000">YES</text>

  <rect x="440" y="854" width="130" height="38" rx="19" fill="#ffffff" stroke="#000000" stroke-width="2" />
  <text x="505" y="877" font-size="8.5" font-weight="800" fill="#000000" text-anchor="middle">GENERATE AI BRIEF</text>

  <g transform="translate(385, 819)">
    <path d="M0,8 C0,3.5 12,0 26,0 C40,0 52,3.5 52,8 L52,30 C52,34.5 40,38 26,38 C12,38 0,34.5 0,30 Z" fill="#ffffff" stroke="#000000" stroke-width="1.8" />
    <path d="M0,8 C0,12.5 12,16 26,16 C40,16 52,12.5 52,8" fill="none" stroke="#000000" stroke-width="1.8" />
    <path d="M0,18 C0,22.5 12,26 26,26 C40,26 52,22.5 52,18" fill="none" stroke="#000000" stroke-width="1.8" />
    <text x="26" y="50" font-size="7.5" font-weight="800" fill="#000000" text-anchor="middle">ADD ALERT LOG</text>
    <text x="26" y="59" font-size="7" font-weight="700" fill="#4b5563" text-anchor="middle">DPDP AUDIT</text>
  </g>
  <path d="M 440 873 L 420 873" fill="none" stroke="#000000" stroke-width="1.8" marker-end="url(#arrow)" />

  <path d="M 565 758 L 638 758" fill="none" stroke="#000000" stroke-width="2" marker-end="url(#arrow)" />
  <text x="585" y="750" font-size="9" font-weight="800" fill="#000000">No</text>

  <!-- Engine 3: DISPATCH ENGINE -->
  <rect x="640" y="738" width="145" height="42" rx="6" fill="#ffffff" stroke="#000000" stroke-width="2" />
  <rect x="648" y="745" width="18" height="26" rx="2" fill="none" stroke="#000000" stroke-width="1.5" />
  <line x1="652" y1="751" x2="662" y2="751" stroke="#000000" stroke-width="1.5" />
  <line x1="652" y1="757" x2="662" y2="757" stroke="#000000" stroke-width="1.5" />
  <circle cx="657" cy="764" r="1.5" fill="#000000" />
  <text x="674" y="763" font-size="9" font-weight="800" fill="#000000">DISPATCH ENGINE</text>

  <g transform="translate(685, 819)">
    <path d="M0,8 C0,3.5 12,0 26,0 C40,0 52,3.5 52,8 L52,30 C52,34.5 40,38 26,38 C12,38 0,34.5 0,30 Z" fill="#ffffff" stroke="#000000" stroke-width="1.8" />
    <path d="M0,8 C0,12.5 12,16 26,16 C40,16 52,12.5 52,8" fill="none" stroke="#000000" stroke-width="1.8" />
    <path d="M0,18 C0,22.5 12,26 26,26 C40,26 52,22.5 52,18" fill="none" stroke="#000000" stroke-width="1.8" />
    <text x="26" y="50" font-size="7.5" font-weight="800" fill="#000000" text-anchor="middle">FETCH LOG</text>
    <text x="26" y="59" font-size="7" font-weight="700" fill="#4b5563" text-anchor="middle">TELEMETRY</text>
  </g>
  <path d="M 712 819 L 712 782" fill="none" stroke="#000000" stroke-width="1.8" marker-end="url(#arrow)" />

  <path d="M 785 758 C 805 758, 810 720, 838 720" fill="none" stroke="#000000" stroke-width="1.8" marker-end="url(#arrow)" />
  <path d="M 785 758 C 805 758, 810 770, 838 770" fill="none" stroke="#000000" stroke-width="1.8" marker-end="url(#arrow)" />
  <path d="M 785 758 C 805 758, 810 820, 838 820" fill="none" stroke="#000000" stroke-width="1.8" marker-end="url(#arrow)" />

  <rect x="840" y="703" width="165" height="34" rx="17" fill="#ffffff" stroke="#000000" stroke-width="1.8" />
  <text x="852" y="724" font-size="10">📱</text>
  <text x="868" y="724" font-size="8.5" font-weight="800" fill="#000000">WEB &amp; IN-CALL HUD</text>

  <rect x="840" y="753" width="165" height="34" rx="17" fill="#ffffff" stroke="#000000" stroke-width="1.8" />
  <text x="852" y="774" font-size="10">📡</text>
  <text x="868" y="774" font-size="8.5" font-weight="800" fill="#000000">CARRIER SIP TONE</text>

  <rect x="840" y="803" width="165" height="34" rx="17" fill="#ffffff" stroke="#000000" stroke-width="1.8" />
  <text x="852" y="824" font-size="10">🚨</text>
  <text x="868" y="824" font-size="8.5" font-weight="800" fill="#000000">BANK / SOC WEBHOOK</text>

  <path d="M 1005 720 L 1040 720" fill="none" stroke="#000000" stroke-width="1.8" marker-end="url(#arrow)" />
  <rect x="1042" y="703" width="150" height="34" rx="6" fill="#ffffff" stroke="#000000" stroke-width="2" />
  <text x="1117" y="724" font-size="8.5" font-weight="800" fill="#000000" text-anchor="middle">FASTAPI WEBSOCKET</text>

  <path d="M 1005 770 L 1040 770" fill="none" stroke="#000000" stroke-width="1.8" marker-end="url(#arrow)" />
  <rect x="1042" y="753" width="150" height="34" rx="6" fill="#ffffff" stroke="#000000" stroke-width="2" />
  <text x="1117" y="774" font-size="8.5" font-weight="800" fill="#000000" text-anchor="middle">TWILIO / SIP GATEWAY</text>

  <path d="M 1005 820 L 1040 820" fill="none" stroke="#000000" stroke-width="1.8" marker-end="url(#arrow)" />
  <rect x="1042" y="803" width="150" height="34" rx="6" fill="#ffffff" stroke="#000000" stroke-width="2" />
  <text x="1117" y="824" font-size="8.5" font-weight="800" fill="#000000" text-anchor="middle">SOAR / REST WEBHOOK</text>

  <path d="M 1192 720 L 1222 720" fill="none" stroke="#000000" stroke-width="1.8" marker-end="url(#arrow)" />

  <!-- Card 3: DISPATCH RECIPIENTS -->
  <g transform="translate(1225, 695)">
    <rect width="180" height="155" rx="8" fill="#ffffff" stroke="#000000" stroke-width="2" />
    <text x="15" y="22" font-size="9" font-weight="900" letter-spacing="0.04em" fill="#000000">DISPATCH RECIPIENTS</text>
    <line x1="15" y1="28" x2="165" y2="28" stroke="#000000" stroke-width="1" />
    <text x="15" y="46" font-size="8" font-family="'JetBrains Mono', monospace" fill="#374151">• Called Handset (SIM B)</text>
    <text x="15" y="64" font-size="8" font-family="'JetBrains Mono', monospace" fill="#374151">• Bank Fraud Prevention Unit</text>
    <text x="15" y="82" font-size="8" font-family="'JetBrains Mono', monospace" fill="#374151">• Telecom Carrier NOC</text>
    <text x="15" y="100" font-size="8" font-family="'JetBrains Mono', monospace" fill="#374151">• In-Call Audible Alert</text>
    <text x="15" y="118" font-size="8" font-family="'JetBrains Mono', monospace" fill="#374151">• Real-Time Incident Webhook</text>
    <text x="15" y="136" font-size="8" font-family="'JetBrains Mono', monospace" fill="#374151">• I4C Cybercrime Gateway</text>
  </g>

  <!-- Card 4: DEVOPS & SERVING INFRASTRUCTURE -->
  <g transform="translate(1425, 695)">
    <rect width="255" height="155" rx="8" fill="#ffffff" stroke="#000000" stroke-width="2" />
    <text x="15" y="22" font-size="9" font-weight="900" letter-spacing="0.04em" fill="#000000">DEVOPS &amp; SERVING INFRASTRUCTURE</text>
    <line x1="15" y1="28" x2="240" y2="28" stroke="#000000" stroke-width="1" />
    <text x="15" y="46" font-size="8" font-family="'JetBrains Mono', monospace" fill="#374151">CONTAINERS : Docker &amp; K8s Helm Charts</text>
    <text x="15" y="64" font-size="8" font-family="'JetBrains Mono', monospace" fill="#374151">BACKEND    : FastAPI, Uvicorn (ASGI)</text>
    <text x="15" y="82" font-size="8" font-family="'JetBrains Mono', monospace" fill="#374151">ML RUNTIME : PyTorch, ONNX Runtime, TensorRT</text>
    <text x="15" y="100" font-size="8" font-family="'JetBrains Mono', monospace" fill="#374151">TELEPHONY  : Asterisk ARI / Twilio SIPREC</text>
    <text x="15" y="118" font-size="8" font-family="'JetBrains Mono', monospace" fill="#374151">METRICS    : Prometheus &amp; Grafana Dashboards</text>
    <text x="15" y="136" font-size="8" font-family="'JetBrains Mono', monospace" fill="#374151">COMPLIANCE : DPDP Act 2023 (Feature-Only Logs)</text>
  </g>

  <!-- CROSS-TIER DASHED SIGNAL -->
  <path d="M 1412 589 C 1412 660, 1000 660, 785 758" fill="none" stroke="#000000" stroke-width="1.8" stroke-dasharray="5,5" marker-end="url(#arrow-dashed)" />
  <text x="1000" y="675" font-size="8.5" font-weight="800" fill="#000000" text-anchor="middle">Confirmed threat auto-triggers emergency in-call interruption &amp; transaction freeze</text>

  <!-- BOTTOM FOOTER -->
  <line x1="25" y1="920" x2="1675" y2="920" stroke="#000000" stroke-width="1.2" />
  <text x="25" y="942" font-size="8" font-weight="800" letter-spacing="0.08em" fill="#000000">TRUE TONE • SMART INDIA HACKATHON • REAL-TIME SIM-TO-SIM VOICE CALL DEEPFAKE DETECTION ARCHITECTURE</text>
  <text x="1675" y="942" font-size="8" font-weight="800" letter-spacing="0.08em" fill="#000000" text-anchor="end">TARGET: CELLULAR VoLTE / VoNR • MONOCHROME TECHNICAL FLOW</text>

</svg>
